<svg width="40" height="40" viewBox="0 0 40 40" fill="none" xmlns="http://www.w3.org/2000/svg">
<rect width="40" height="40" fill="#F5F5F5"/>
<g id="&#208;&#147;&#208;&#187;&#208;&#176;&#208;&#178;&#208;&#189;&#208;&#176;&#209;&#143;" clip-path="url(#clip0_0_1)">
<rect width="390" height="844" transform="translate(-285 -372)" fill="black"/>
<circle id="Ellipse 2" cx="20" cy="20" r="20" fill="#FFF2C3"/>
<g id="Group">
<g id="Vector" filter="url(#filter0_d_0_1)">
<path fill-rule="evenodd" clip-rule="evenodd" d="M25.5463 10.9717C25.3144 10.7533 25.0476 10.636 24.7491 10.6521C24.4505 10.6521 24.1837 10.7693 23.9678 11.0054L22.2066 12.8541L27.1407 17.6774L28.9177 15.795C29.1337 15.5765 29.2162 15.2906 29.2162 14.9887C29.2162 14.6867 29.1003 14.4008 28.8843 14.1984L25.5463 10.9717ZM17.1011 28.2507C16.4531 28.4691 15.7893 28.6715 15.1398 28.8899C14.4919 29.1083 13.844 29.3268 13.1786 29.5452C11.6334 30.0495 10.7854 30.3354 10.6028 30.3852C10.4202 30.435 10.5361 29.7139 10.9188 28.2009L12.1479 23.4451L12.2496 23.339L17.1026 28.2474L17.1011 28.2507ZM14.0457 21.4518L20.8727 14.2531L25.8067 19.0587L18.8971 26.3586L14.0457 21.4518Z" fill="black"/>
<path d="M24.7491 11.1521H24.7625L24.7759 11.1513C24.9106 11.1441 25.0485 11.1904 25.2013 11.3336L28.5368 14.5579L28.5368 14.558L28.5425 14.5633C28.6499 14.664 28.7162 14.8142 28.7162 14.9887C28.7162 15.2006 28.66 15.3445 28.5621 15.4434L28.562 15.4433L28.5541 15.4517L27.1264 16.9642L22.9091 12.8416L24.3298 11.3503L24.3299 11.3504L24.3367 11.3429C24.4614 11.2065 24.596 11.1521 24.7491 11.1521ZM11.4035 28.3235L12.4544 24.2574L16.1806 28.026C16.1101 28.0487 16.0393 28.0714 15.9684 28.0942L15.9549 28.0985C15.6318 28.2021 15.3046 28.307 14.9804 28.416L14.9801 28.4161C14.3319 28.6346 13.6859 28.8524 13.0228 29.0701C12.3841 29.2786 11.8692 29.4481 11.4723 29.5788C11.3278 29.6264 11.199 29.6688 11.0855 29.7061C11.1482 29.3741 11.2536 28.9165 11.4032 28.3248C11.4033 28.3244 11.4034 28.3239 11.4035 28.3235ZM14.7416 21.4446L20.8868 14.9648L25.1047 19.0729L18.8893 25.6395L14.7416 21.4446Z" stroke="black"/>
</g>
</g>
</g>
<defs>
<filter id="filter0_d_0_1" x="6.51807" y="10.6506" width="26.6982" height="27.737" filterUnits="userSpaceOnUse" color-interpolation-filters="sRGB">
<feFlood flood-opacity="0" result="BackgroundImageFix"/>
<feColorMatrix in="SourceAlpha" type="matrix" values="0 0 0 0 0 0 0 0 0 0 0 0 0 0 0 0 0 0 127 0" result="hardAlpha"/>
<feOffset dy="4"/>
<feGaussianBlur stdDeviation="2"/>
<feComposite in2="hardAlpha" operator="out"/>
<feColorMatrix type="matrix" values="0 0 0 0 0 0 0 0 0 0 0 0 0 0 0 0 0 0 0.25 0"/>
<feBlend mode="normal" in2="BackgroundImageFix" result="effect1_dropShadow_0_1"/>
<feBlend mode="normal" in="SourceGraphic" in2="effect1_dropShadow_0_1" result="shape"/>
</filter>
<clipPath id="clip0_0_1">
<rect width="390" height="844" fill="white" transform="translate(-285 -372)"/>
</clipPath>
</defs>
</svg>
